HIERARCHY
ROOT hip
{
  OFFSET 0 0 0
  CHANNELS 6 Xposition Yposition Zposition Zrotation Yrotation Xrotation
  JOINT abdomen
  {
    OFFSET 0 20.6881 -0.73152
    CHANNELS 3 Zrotation Xrotation Yrotation
    JOINT chest
    {
      OFFSET 0 11.7043 -0.48768
      CHANNELS 3 Zrotation Xrotation Yrotation
      JOINT neck
      {
        OFFSET 0 22.1894 -2.19456
        CHANNELS 3 Zrotation Xrotation Yrotation
        JOINT head
        {
          OFFSET -0.24384 7.07133 1.2192
          CHANNELS 3 Zrotation Xrotation Yrotation
          JOINT leftEye
          {
            OFFSET 4.14528 8.04674 8.04672
            CHANNELS 3 Zrotation Xrotation Yrotation
            End Site
            {
              OFFSET 1 0 0
            }
          }
          JOINT rightEye
          {
            OFFSET -3.6576 8.04674 8.04672
            CHANNELS 3 Zrotation Xrotation Yrotation
            End Site
            {
              OFFSET 1 0 0
            }
          }
        }
      }
      JOINT rCollar
      {
        OFFSET -2.68224 19.2634 -4.8768
        CHANNELS 3 Zrotation Xrotation Yrotation
        JOINT rShldr
        {
          OFFSET -8.77824 -1.95073 1.46304
          CHANNELS 3 Zrotation Xrotation Yrotation
          JOINT rForeArm
          {
            OFFSET -28.1742 -1.7115 0.48768
            CHANNELS 3 Zrotation Xrotation Yrotation
            JOINT rHand
            {
              OFFSET -22.5879 0.773209 7.07136
              CHANNELS 3 Zrotation Xrotation Yrotation
              JOINT rThumb1
              {
                OFFSET -1.2192 -0.487915 3.41376
                CHANNELS 3 Zrotation Xrotation Yrotation
                JOINT rThumb2
                {
                  OFFSET -3.37035 -0.52449 3.41376
                  CHANNELS 3 Zrotation Xrotation Yrotation
                  End Site
                  {
                    OFFSET -1.78271 -1.18214 1.43049
                  }
                }
              }
              JOINT rIndex1
              {
                OFFSET -7.75947 0.938293 5.60832
                CHANNELS 3 Zrotation Xrotation Yrotation
                JOINT rIndex2
                {
                  OFFSET -2.54057 -0.884171 1.56538
                  CHANNELS 3 Zrotation Xrotation Yrotation
                  End Site
                  {
                    OFFSET -1.62519 -0.234802 1.16502
                  }
                }
              }
              JOINT rMid1
              {
                OFFSET -8.24714 1.18213 3.41376
                CHANNELS 3 Zrotation Xrotation Yrotation
                JOINT rMid2
                {
                  OFFSET -3.10165 -0.590103 1.0647
                  CHANNELS 3 Zrotation Xrotation Yrotation
                  End Site
                  {
                    OFFSET -2.48547 -0.328903 0.83742
                  }
                }
              }
              JOINT rRing1
              {
                OFFSET -8.82822 0.546677 1.51678
                CHANNELS 3 Zrotation Xrotation Yrotation
                JOINT rRing2
                {
                  OFFSET -2.60934 -0.819778 -0.0198488
                  CHANNELS 3 Zrotation Xrotation Yrotation
                  End Site
                  {
                    OFFSET -2.33842 -0.294052 0.168128
                  }
                }
              }
              JOINT rPinky1
              {
                OFFSET -8.27202 -0.0477905 -0.4584
                CHANNELS 3 Zrotation Xrotation Yrotation
                JOINT rPinky2
                {
                  OFFSET -1.82734 -0.647385 -0.700984
                  CHANNELS 3 Zrotation Xrotation Yrotation
                  End Site
                  {
                    OFFSET -1.69225 -0.51767 -0.607171
                  }
                }
              }
            }
          }
        }
      }
      JOINT lCollar
      {
        OFFSET 2.68224 19.2634 -4.8768
        CHANNELS 3 Zrotation Xrotation Yrotation
        JOINT lShldr
        {
          OFFSET 8.77824 -1.95073 1.46304
          CHANNELS 3 Zrotation Xrotation Yrotation
          JOINT lForeArm
          {
            OFFSET 28.1742 -1.7115 0.48768
            CHANNELS 3 Zrotation Xrotation Yrotation
            JOINT lHand
            {
              OFFSET 22.5879 0.773209 7.07136
              CHANNELS 3 Zrotation Xrotation Yrotation
              JOINT lThumb1
              {
                OFFSET 1.2192 -0.487915 3.41376
                CHANNELS 3 Zrotation Xrotation Yrotation
                JOINT lThumb2
                {
                  OFFSET 3.37035 -0.52449 3.41376
                  CHANNELS 3 Zrotation Xrotation Yrotation
                  End Site
                  {
                    OFFSET 1.78271 -1.18214 1.43049
                  }
                }
              }
              JOINT lIndex1
              {
                OFFSET 7.75947 0.938293 5.60832
                CHANNELS 3 Zrotation Xrotation Yrotation
                JOINT lIndex2
                {
                  OFFSET 2.54057 -0.884171 1.56538
                  CHANNELS 3 Zrotation Xrotation Yrotation
                  End Site
                  {
                    OFFSET 1.62519 -0.234802 1.16502
                  }
                }
              }
              JOINT lMid1
              {
                OFFSET 8.24714 1.18213 3.41376
                CHANNELS 3 Zrotation Xrotation Yrotation
                JOINT lMid2
                {
                  OFFSET 3.10165 -0.590103 1.0647
                  CHANNELS 3 Zrotation Xrotation Yrotation
                  End Site
                  {
                    OFFSET 2.48547 -0.328903 0.83742
                  }
                }
              }
              JOINT lRing1
              {
                OFFSET 8.82822 0.546677 1.51678
                CHANNELS 3 Zrotation Xrotation Yrotation
                JOINT lRing2
                {
                  OFFSET 2.60934 -0.819778 -0.0198488
                  CHANNELS 3 Zrotation Xrotation Yrotation
                  End Site
                  {
                    OFFSET 2.33842 -0.294052 0.168128
                  }
                }
              }
              JOINT lPinky1
              {
                OFFSET 8.27202 -0.0477905 -0.4584
                CHANNELS 3 Zrotation Xrotation Yrotation
                JOINT lPinky2
                {
                  OFFSET 1.82734 -0.647385 -0.700984
                  CHANNELS 3 Zrotation Xrotation Yrotation
                  End Site
                  {
                    OFFSET 1.69225 -0.51767 -0.607171
                  }
                }
              }
            }
          }
        }
      }
    }
  }
  JOINT rButtock
  {
    OFFSET -8.77824 4.35084 1.2192
    CHANNELS 3 Zrotation Xrotation Yrotation
    JOINT rThigh
    {
      OFFSET 0 -1.70687 -2.19456
      CHANNELS 3 Zrotation Xrotation Yrotation
      JOINT rShin
      {
        OFFSET 0 -36.8199 0.73152
        CHANNELS 3 Zrotation Xrotation Yrotation
        JOINT rFoot
        {
          OFFSET 0.73152 -45.1104 -5.12064
          CHANNELS 3 Zrotation Xrotation Yrotation
          End Site
          {
            OFFSET -1.1221 -3.69964 12.103
          }
        }
      }
    }
  }
  JOINT lButtock
  {
    OFFSET 8.77824 4.35084 1.2192
    CHANNELS 3 Zrotation Xrotation Yrotation
    JOINT lThigh
    {
      OFFSET 0 -1.70687 -2.19456
      CHANNELS 3 Zrotation Xrotation Yrotation
      JOINT lShin
      {
        OFFSET 0 -36.8199 0.73152
        CHANNELS 3 Zrotation Xrotation Yrotation
        JOINT lFoot
        {
          OFFSET -0.73152 -45.1104 -5.12064
          CHANNELS 3 Zrotation Xrotation Yrotation
          End Site
          {
            OFFSET 1.1221 -3.69964 12.103
          }
        }
      }
    }
  }
}
MOTION
Frames:	9
Frame Time:	0.00833333
-8.61107 82.0169 -28.9899 -2.0368 2.117 45.5479 5.14381 49.2113 -3.30672 2.62282 -10.1398 0.219613 -11.894 -18.2456 -4.23715 9.71254 -8.86458 -0.717394 -0.0 0.0 0.0 -0.0 0.0 0.0 1.47484e-13 1.29532e-13 5.8216e-14 19.1454 -0.954338 51.9549 -18.549 -11.2882 35.2671 -1.63205 33.7194 5.38206 3.03211e-10 -1.77054e-09 1.62317e-09 5.71102e-10 -3.02529e-09 2.79112e-09 3.03217e-10 -1.77054e-09 1.62316e-09 7.73091 5.47488 0.417314 3.03208e-10 -1.77055e-09 1.62317e-09 2.90554 0.965183 0.102902 3.03217e-10 -1.77054e-09 1.62317e-09 10.2786 0.731801 0.0259123 3.03212e-10 -1.77054e-09 1.62318e-09 2.22167 -0.733487 -0.20892 1.47373e-13 1.29533e-13 5.81166e-14 -17.4488 5.05726 -54.0271 17.2161 -9.86707 -32.2868 0.361728 16.8528 -2.44006 -2.84964e-09 7.36049e-10 -1.40283e-09 -4.9441e-09 1.31353e-09 -2.38089e-09 -2.84964e-09 7.36052e-10 -1.40282e-09 -7.73091 5.47488 -0.417314 -2.84964e-09 7.36048e-10 -1.40283e-09 -2.90554 0.965183 -0.102902 -2.84965e-09 7.36049e-10 -1.40282e-09 -10.2786 0.731801 -0.0259123 -2.84963e-09 7.3605e-10 -1.40283e-09 -2.22167 -0.733487 0.20892 -2.03217e-16 0.0 -3.88251e-19 -37.8837 -75.6636 -29.705 -0.260178 32.5173 0.29946 -2.25954 -0.240636 -12.5107 2.03217e-16 0.0 3.88251e-19 47.1969 -79.2653 41.4659 0.262631 38.2805 -0.689194 0.803466 2.95264 4.42314
-8.57143 81.9575 -28.879 -2.0314 2.0596 44.8936 5.09355 48.0475 -3.27452 2.51006 -9.99842 0.19195 -11.5515 -17.7332 -4.08142 9.56663 -9.25244 -0.688649 -0.0 0.0 0.0 -0.0 0.0 0.0 1.73391e-13 1.55625e-13 6.38009e-14 19.7388 0.39409 51.1176 -18.7291 -11.4918 35.6799 -1.65459 33.917 5.4225 -7.58127e-11 -1.23204e-09 9.61525e-10 -1.01044e-10 -2.10983e-09 1.65977e-09 -7.5806e-11 -1.23204e-09 9.61518e-10 7.73091 5.47488 0.417314 -7.58158e-11 -1.23205e-09 9.61539e-10 2.90554 0.965183 0.102902 -7.58064e-11 -1.23205e-09 9.61529e-10 10.2786 0.731801 0.0259123 -7.58124e-11 -1.23205e-09 9.61539e-10 2.22167 -0.733487 -0.20892 1.73257e-13 1.55627e-13 6.37171e-14 -17.8291 6.58806 -53.244 17.3936 -10.0488 -32.675 0.355818 16.7221 -2.41997 -2.24367e-09 1.18231e-09 -9.79145e-10 -3.88987e-09 2.07776e-09 -1.65799e-09 -2.24367e-09 1.18231e-09 -9.79135e-10 -7.73091 5.47488 -0.417314 -2.24367e-09 1.18231e-09 -9.79144e-10 -2.90554 0.965183 -0.102902 -2.24368e-09 1.18231e-09 -9.79141e-10 -10.2786 0.731801 -0.0259123 -2.24366e-09 1.18231e-09 -9.79148e-10 -2.22167 -0.733487 0.20892 -2.03217e-16 0.0 -3.88251e-19 -36.6728 -75.2193 -28.5282 -0.264108 32.8132 0.305815 -2.26524 -0.331502 -12.3733 2.03217e-16 0.0 3.88251e-19 45.1794 -78.8574 39.4541 0.26778 38.5614 -0.699 0.81641 2.79441 4.40781
-8.54515 81.9035 -28.7363 -2.0061 2.0869 44.2258 5.04389 46.8034 -3.22988 2.42116 -9.79418 0.167379 -11.3217 -17.3127 -3.9737 9.52947 -9.61172 -0.663754 -0.0 0.0 0.0 -0.0 0.0 0.0 1.83754e-13 1.68567e-13 6.75371e-14 20.3387 1.69141 50.265 -18.9214 -11.7127 36.1214 -1.67403 34.0856 5.45718 -2.28609e-10 -9.65812e-10 6.30669e-10 -3.73675e-10 -1.65626e-09 1.09291e-09 -2.28602e-10 -9.65811e-10 6.30659e-10 7.73091 5.47488 0.417314 -2.28612e-10 -9.65822e-10 6.30685e-10 2.90554 0.965183 0.102902 -2.28602e-10 -9.65816e-10 6.30672e-10 10.2786 0.731801 0.0259123 -2.28609e-10 -9.65815e-10 6.30682e-10 2.22167 -0.733487 -0.20892 1.83612e-13 1.68571e-13 6.74377e-14 -18.3094 8.03519 -52.4691 17.5755 -10.2375 -33.0749 0.34897 16.5684 -2.39639 -1.92463e-09 1.34675e-09 -7.62013e-10 -3.33486e-09 2.35825e-09 -1.28788e-09 -1.92464e-09 1.34675e-09 -7.62e-10 -7.73091 5.47488 -0.417314 -1.92463e-09 1.34675e-09 -7.6201e-10 -2.90554 0.965183 -0.102902 -1.92464e-09 1.34675e-09 -7.62007e-10 -10.2786 0.731801 -0.0259123 -1.92462e-09 1.34675e-09 -7.62013e-10 -2.22167 -0.733487 0.20892 -2.03217e-16 0.0 -3.88251e-19 -35.606 -74.794 -27.5192 -0.268137 33.1038 0.311639 -2.25935 -0.38007 -12.2208 2.03217e-16 0.0 3.88251e-19 43.4894 -78.4325 37.8112 0.272933 38.8425 -0.70912 0.828784 2.62143 4.36313
-8.54713 81.849 -28.5979 -2.1333 2.1161 43.6305 5.00407 45.3726 -3.17621 2.36056 -9.47318 0.144137 -11.2572 -17.0148 -3.9301 9.66442 -9.93613 -0.633758 -0.0 0.0 0.0 -0.0 0.0 0.0 1.71153e-13 1.65208e-13 7.0704e-14 20.953 2.92256 49.3832 -19.1369 -11.9647 36.6195 -1.69133 34.2348 5.48796 1.13299e-11 -1.18183e-09 8.69801e-10 4.72383e-11 -2.02076e-09 1.49859e-09 1.13362e-11 -1.18183e-09 8.69793e-10 7.73091 5.47488 0.417314 1.13271e-11 -1.18184e-09 8.69814e-10 2.90554 0.965183 0.102902 1.13376e-11 -1.18184e-09 8.69803e-10 10.2786 0.731801 0.0259123 1.13276e-11 -1.18184e-09 8.69812e-10 2.22167 -0.733487 -0.20892 1.71029e-13 1.65215e-13 7.05363e-14 -18.9277 9.3473 -51.6697 17.7709 -10.4431 -33.5066 0.340233 16.3682 -2.36575 -2.12308e-09 1.04515e-09 -9.10137e-10 -3.67989e-09 1.83949e-09 -1.5416e-09 -2.12308e-09 1.04515e-09 -9.10124e-10 -7.73091 5.47488 -0.417314 -2.12308e-09 1.04515e-09 -9.10134e-10 -2.90554 0.965183 -0.102902 -2.12308e-09 1.04515e-09 -9.1013e-10 -10.2786 0.731801 -0.0259123 -2.12307e-09 1.04515e-09 -9.10136e-10 -2.22167 -0.733487 0.20892 -2.03217e-16 0.0 -3.88251e-19 -34.851 -74.471 -26.8701 -0.272538 33.4036 0.316755 -2.23268 -0.346292 -12.0436 2.03217e-16 0.0 3.88251e-19 42.4433 -78.0468 36.8797 0.278365 39.1396 -0.72016 0.839289 2.43104 4.26675
-8.56347 81.7551 -28.4075 -2.2606 2.181 42.8114 4.97594 43.8062 -3.11568 2.3229 -9.06589 0.123041 -11.3028 -16.8092 -3.93062 9.90681 -10.235 -0.600796 -0.0 0.0 0.0 -0.0 0.0 0.0 1.42776e-13 1.49854e-13 7.33112e-14 21.5876 4.10096 48.4663 -19.3651 -12.2357 37.1537 -1.70823 34.3798 5.51795 4.96506e-10 -1.68018e-09 1.44728e-09 9.00745e-10 -2.86385e-09 2.48126e-09 4.96511e-10 -1.68018e-09 1.44727e-09 7.73091 5.47488 0.417314 4.96505e-10 -1.68019e-09 1.44729e-09 2.90554 0.965183 0.102902 4.96515e-10 -1.68019e-09 1.44728e-09 10.2786 0.731801 0.0259123 4.96502e-10 -1.68018e-09 1.44729e-09 2.22167 -0.733487 -0.20892 1.42688e-13 1.49863e-13 7.30378e-14 -19.6715 10.5461 -50.83 17.9716 -10.6573 -33.9532 0.330858 16.1498 -2.33241 -2.61123e-09 4.33685e-10 -1.27837e-09 -4.52909e-09 7.88584e-10 -2.17167e-09 -2.61123e-09 4.33687e-10 -1.27836e-09 -7.73091 5.47488 -0.417314 -2.61123e-09 4.33684e-10 -1.27837e-09 -2.90554 0.965183 -0.102902 -2.61123e-09 4.33686e-10 -1.27836e-09 -10.2786 0.731801 -0.0259123 -2.61122e-09 4.33688e-10 -1.27837e-09 -2.22167 -0.733487 0.20892 -2.03217e-16 0.0 -3.88251e-19 -34.2659 -74.2128 -26.4329 -0.277223 33.7109 0.321444 -2.19218 -0.25744 -11.8455 2.03217e-16 0.0 3.88251e-19 41.7967 -77.6839 36.3875 0.284119 39.4513 -0.731957 0.848235 2.22443 4.1359
-8.54095 81.7043 -28.2639 -2.4567 1.9745 42.4518 4.94308 42.3053 -3.0439 2.3023 -8.67064 0.107467 -11.3769 -16.6501 -3.95198 10.1622 -10.5154 -0.583442 -0.0 0.0 0.0 -0.0 0.0 0.0 1.09927e-13 1.26362e-13 7.24722e-14 22.2161 5.23744 47.521 -19.5854 -12.5006 37.678 -1.72085 34.4874 5.54028 9.62903e-10 -2.13834e-09 1.99863e-09 1.72099e-09 -3.63876e-09 3.41945e-09 9.62906e-10 -2.13834e-09 1.99863e-09 7.73091 5.47488 0.417314 9.62902e-10 -2.13834e-09 1.99863e-09 2.90554 0.965183 0.102902 9.62913e-10 -2.13834e-09 1.99863e-09 10.2786 0.731801 0.0259123 9.62896e-10 -2.13834e-09 1.99863e-09 2.22167 -0.733487 -0.20892 1.09874e-13 1.26374e-13 7.20932e-14 -20.4505 11.6986 -49.9877 18.1623 -10.8632 -34.3824 0.322254 15.9449 -2.30121 -3.04119e-09 -1.90277e-10 -1.61848e-09 -5.27752e-09 -2.84901e-10 -2.75386e-09 -3.04119e-09 -1.90278e-10 -1.61847e-09 -7.73091 5.47488 -0.417314 -3.04119e-09 -1.9028e-10 -1.61848e-09 -2.90554 0.965183 -0.102902 -3.04119e-09 -1.90277e-10 -1.61847e-09 -10.2786 0.731801 -0.0259123 -3.04118e-09 -1.90274e-10 -1.61848e-09 -2.22167 -0.733487 0.20892 -2.03217e-16 0.0 -3.88251e-19 -33.5174 -73.8662 -25.8247 -0.281597 33.9948 0.32587 -2.15462 -0.182886 -11.6455 2.03217e-16 0.0 3.88251e-19 40.8948 -77.2458 35.6442 0.289571 39.7431 -0.743293 0.857055 2.00664 4.00804
-8.42982 81.671 -28.0599 -2.1514 1.8761 41.9447 4.88832 41.0711 -2.95486 2.29269 -8.38576 0.100756 -11.3985 -16.4915 -3.97111 10.3358 -10.7846 -0.600332 -0.0 0.0 0.0 -0.0 0.0 0.0 8.39073e-14 9.85908e-14 6.53008e-14 22.8118 6.34273 46.5555 -19.7791 -12.7364 38.1463 -1.72523 34.5246 5.54802 1.1465e-09 -2.23376e-09 2.15937e-09 2.04213e-09 -3.79871e-09 3.69172e-09 1.1465e-09 -2.23377e-09 2.15937e-09 7.73091 5.47488 0.417314 1.1465e-09 -2.23376e-09 2.15937e-09 2.90554 0.965183 0.102902 1.14651e-09 -2.23376e-09 2.15937e-09 10.2786 0.731801 0.0259123 1.14649e-09 -2.23376e-09 2.15938e-09 2.22167 -0.733487 -0.20892 8.38724e-14 9.86044e-14 6.48535e-14 -21.1755 12.8759 -49.1885 18.3288 -11.0446 -34.762 0.315692 15.7852 -2.27695 -3.06507e-09 -5.2937e-10 -1.68224e-09 -5.32023e-09 -8.71392e-10 -2.864e-09 -3.06507e-09 -5.29372e-10 -1.68223e-09 -7.73091 5.47488 -0.417314 -3.06507e-09 -5.29374e-10 -1.68224e-09 -2.90554 0.965183 -0.102902 -3.06507e-09 -5.29371e-10 -1.68223e-09 -10.2786 0.731801 -0.0259123 -3.06507e-09 -5.29367e-10 -1.68223e-09 -2.22167 -0.733487 0.20892 -2.03217e-16 0.0 -3.88251e-19 -32.3326 -73.2729 -24.7227 -0.285061 34.2241 0.330187 -2.13573 -0.192216 -11.4624 2.03217e-16 0.0 3.88251e-19 39.2043 -76.6262 34.0805 0.294032 39.9804 -0.752896 0.867779 1.78276 3.92061
-8.32515 81.6479 -27.8072 -1.8462 1.721 41.2823 4.81608 40.2166 -2.83168 2.29473 -8.25605 0.109319 -11.3508 -16.3509 -3.99498 10.3866 -11.0214 -0.678499 -0.0 0.0 0.0 -0.0 0.0 0.0 6.7426e-14 6.0698e-14 4.69924e-14 23.3097 7.40001 45.5726 -19.928 -12.9195 38.5116 -1.71266 34.4179 5.52583 8.66022e-10 -1.75244e-09 1.69674e-09 1.54475e-09 -2.98144e-09 2.90158e-09 8.66024e-10 -1.75244e-09 1.69673e-09 7.73091 5.47488 0.417314 8.66022e-10 -1.75244e-09 1.69673e-09 2.90554 0.965183 0.102902 8.66033e-10 -1.75244e-09 1.69674e-09 10.2786 0.731801 0.0259123 8.66015e-10 -1.75244e-09 1.69674e-09 2.22167 -0.733487 -0.20892 6.73792e-14 6.07106e-14 4.65238e-14 -21.8186 14.0931 -48.4658 18.4631 -11.1925 -35.0699 0.311629 15.6851 -2.26177 -2.44787e-09 -4.38648e-10 -1.31171e-09 -4.24893e-09 -7.23595e-10 -2.23242e-09 -2.44787e-09 -4.38651e-10 -1.3117e-09 -7.73091 5.47488 -0.417314 -2.44787e-09 -4.38652e-10 -1.31171e-09 -2.90554 0.965183 -0.102902 -2.44788e-09 -4.38649e-10 -1.3117e-09 -10.2786 0.731801 -0.0259123 -2.44787e-09 -4.38646e-10 -1.31171e-09 -2.22167 -0.733487 0.20892 -2.03217e-16 0.0 -3.88251e-19 -30.6206 -72.3242 -23.0186 -0.287215 34.3765 0.334263 -2.14297 -0.322538 -11.3062 2.03217e-16 0.0 3.88251e-19 36.6221 -75.7391 31.5643 0.297005 40.1418 -0.759916 0.881547 1.55522 3.88656
-8.2898 81.707 -27.3641 -1.8198 1.6458 39.9138 4.73231 39.6146 -2.6812 2.31071 -8.22289 0.129504 -11.2753 -16.2431 -4.03148 10.3696 -11.2297 -0.800798 -0.0 0.0 0.0 -0.0 0.0 0.0 5.45571e-14 1.29162e-14 2.04313e-14 23.7406 8.40259 44.5588 -20.049 -13.0704 38.8095 -1.68803 34.2063 5.48208 2.99234e-10 -9.09044e-10 8.50298e-10 5.42357e-10 -1.55071e-09 1.4574e-09 2.99238e-10 -9.09047e-10 8.50292e-10 7.73091 5.47488 0.417314 2.99234e-10 -9.09051e-10 8.50301e-10 2.90554 0.965183 0.102902 2.99244e-10 -9.09046e-10 8.50299e-10 10.2786 0.731801 0.0259123 2.99228e-10 -9.09045e-10 8.50308e-10 2.22167 -0.733487 -0.20892 5.44798e-14 1.29263e-14 1.99685e-14 -22.4245 15.3075 -47.7852 18.5758 -11.3184 -35.3276 0.309199 15.6259 -2.25278 -1.42254e-09 -9.85907e-11 -6.69877e-10 -2.46859e-09 -1.50416e-10 -1.13754e-09 -1.42255e-09 -9.85921e-11 -6.69864e-10 -7.73091 5.47488 -0.417314 -1.42254e-09 -9.85929e-11 -6.69871e-10 -2.90554 0.965183 -0.102902 -1.42255e-09 -9.85912e-11 -6.69868e-10 -10.2786 0.731801 -0.0259123 -1.42254e-09 -9.85892e-11 -6.69873e-10 -2.22167 -0.733487 0.20892 -2.03217e-16 0.0 -3.88251e-19 -28.7229 -71.1105 -21.0798 -0.288427 34.4733 0.338052 -2.16585 -0.530762 -11.1651 2.03217e-16 0.0 3.88251e-19 33.7275 -74.6312 28.6985 0.298874 40.2499 -0.765132 0.897686 1.32099 3.88493
